# xmcd
#
# Track frame offsets:
#	300
#	20623
#	46307
#	64530
#	88526
#	106946
#	127327
#	143511
#	165132
#	184593
#	204901
#	224359
#
# Disc length: 3321 seconds
#
# Revision: 0
# Processed by: cddbd v1.5.2PL0 Copyright (c) Steve Scherf et al.
# Submitted via: EasyCDDAExtractor 10.5.1.1
#
DISCID=9d0cf50c
DTITLE=梅楣 - 声色
DYEAR=2007
DGENRE=
TTITLE0=梅楣 - 飞鸟与鱼
TTITLE1=梅楣 - 芒果清情
TTITLE2=梅楣 - 可爱的玫瑰花
TTITLE3=梅楣 - 突然很想你
TTITLE4=梅楣 - 童话
TTITLE5=梅楣 - Elian日记
TTITLE6=梅楣 - 遇见
TTITLE7=梅楣 - 花夜
TTITLE8=梅楣 - 脆弱
TTITLE9=梅楣 - 看你走天涯
TTITLE10=梅楣 - 别说对不起
TTITLE11=梅楣 - 神话鱼
EXTD=
EXTT0=
EXTT1=
EXTT2=
EXTT3=
EXTT4=
EXTT5=
EXTT6=
EXTT7=
EXTT8=
EXTT9=
EXTT10=
EXTT11=
PLAYORDER=
